<svg width="22" height="22" viewBox="0 0 22 22" fill="none" xmlns="http://www.w3.org/2000/svg">
<g id="codicon:feedback">
<path id="Vector" d="M10.3799 13.8573C11.0124 14.1075 11.5899 14.4403 12.1096 14.8541C12.6294 15.2666 13.0735 15.7479 13.4434 16.2924C14.1978 17.3911 14.6041 18.6914 14.6094 20.0241V20.625H13.4063V20.0227C13.4088 19.3116 13.2697 18.6071 12.9971 17.9503C12.7244 17.2936 12.3236 16.6977 11.8181 16.1975C11.322 15.7084 10.7385 15.3166 10.098 15.0425C9.43233 14.7573 8.71574 14.61 7.99152 14.6094C7.2804 14.6068 6.57589 14.7459 5.91912 15.0186C5.26234 15.2913 4.66647 15.692 4.16627 16.1975C3.67731 16.6938 3.28556 17.2772 3.01127 17.9176C2.72802 18.5694 2.58502 19.272 2.57815 20.0227V20.625H1.37502V20.0227C1.37151 18.6891 1.77861 17.3866 2.54102 16.2924C3.30043 15.1968 4.36672 14.35 5.6059 13.8586C5.32439 13.6652 5.06804 13.4375 4.84277 13.1808C4.62017 12.928 4.42775 12.6502 4.2694 12.353C4.11166 12.056 3.99157 11.7406 3.9119 11.4139C3.83065 11.0811 3.78684 10.7403 3.78127 10.3977C3.78127 9.81612 3.89127 9.27025 4.11127 8.76288C4.54145 7.75764 5.34205 6.95655 6.34702 6.52575C6.86549 6.30504 7.42293 6.19048 7.98642 6.18882C8.54991 6.18717 9.10802 6.29846 9.62777 6.51612C10.6333 6.94663 11.4344 7.74776 11.8649 8.75325C12.2209 9.5905 12.2967 10.5204 12.0808 11.4043C11.9983 11.7301 11.8773 12.0436 11.715 12.3447C11.5538 12.6428 11.3616 12.923 11.1416 13.1808C10.9216 13.4379 10.6673 13.662 10.3799 13.8573ZM7.99152 13.4062C8.4054 13.4062 8.79452 13.3279 9.15752 13.1725C9.87723 12.8667 10.4501 12.2934 10.7553 11.5734C10.9189 11.2035 11 10.8116 11 10.3991C11.0018 10.0054 10.9244 9.6153 10.7726 9.25203C10.6207 8.88876 10.3974 8.5597 10.1159 8.28438C9.83748 8.01289 9.51296 7.79312 9.15752 7.63538C8.79076 7.47156 8.3932 7.38811 7.99152 7.39062C7.57902 7.39062 7.1899 7.469 6.8269 7.62438C6.10321 7.93304 5.52681 8.50944 5.21815 9.23313C5.06277 9.59613 4.9844 9.98525 4.9844 10.3991C4.9844 10.8116 5.06277 11.2007 5.21815 11.5637C5.37627 11.9267 5.5894 12.2471 5.8589 12.5221C6.13789 12.8041 6.47035 13.0275 6.83678 13.1793C7.20322 13.3311 7.59626 13.4083 7.9929 13.4062H7.99152ZM20.625 1.375V11H18.2188L14.6094 14.6094V11H13.4063V9.79688H15.8125V11.7054L17.721 9.79688H19.4219V2.57812H7.39065V4.73963C7.18898 4.76511 6.98813 4.79675 6.7884 4.8345C6.58359 4.87338 6.38254 4.92997 6.18752 5.00362V1.375H20.625Z" fill="#767676"/>
</g>
</svg>
