<svg width="42" height="42" viewBox="0 0 42 42" fill="none" xmlns="http://www.w3.org/2000/svg">
<g id="Group 279">
<circle id="Ellipse 9" cx="21" cy="21" r="18" fill="#DBDBDB"/>
<path id="Vector" d="M21 29C21.232 29 21.4546 28.9064 21.6186 28.7397C21.7827 28.573 21.8749 28.3469 21.8749 28.1112L21.8749 16.036L26.5046 20.7413C26.6689 20.9082 26.8917 21.0019 27.124 21.0019C27.3564 21.0019 27.5792 20.9082 27.7434 20.7413C27.9077 20.5744 28 20.348 28 20.112C28 19.876 27.9077 19.6496 27.7434 19.4827L21.6194 13.2611C21.5381 13.1783 21.4416 13.1127 21.3353 13.0679C21.229 13.0231 21.1151 13 21 13C20.8849 13 20.771 13.0231 20.6647 13.0679C20.5584 13.1127 20.4619 13.1783 20.3806 13.2611L14.2566 19.4827C14.1752 19.5654 14.1107 19.6635 14.0667 19.7714C14.0227 19.8794 14 19.9951 14 20.112C14 20.348 14.0923 20.5744 14.2566 20.7413C14.4208 20.9082 14.6436 21.0019 14.876 21.0019C15.1083 21.0019 15.3311 20.9082 15.4954 20.7413L20.1251 16.036L20.1251 28.1112C20.1251 28.3469 20.2173 28.573 20.3814 28.7397C20.5454 28.9064 20.768 29 21 29Z" fill="white"/>
</g>
</svg>
