<svg width="34" height="34" viewBox="0 0 34 34" fill="none" xmlns="http://www.w3.org/2000/svg">
<g id="Group 232">
<path id="Vector" d="M17.0001 19.5496C18.7373 19.5496 20.4033 18.8595 21.6316 17.6312C22.86 16.4028 23.5501 14.7368 23.5501 12.9996C23.5501 11.2624 22.86 9.59642 21.6316 8.36806C20.4033 7.1397 18.7373 6.44961 17.0001 6.44961C15.2629 6.44961 13.5969 7.1397 12.3685 8.36806C11.1402 9.59642 10.4501 11.2624 10.4501 12.9996C10.4501 14.7368 11.1402 16.4028 12.3685 17.6312C13.5969 18.8595 15.2629 19.5496 17.0001 19.5496ZM18.7796 17.2956C18.2154 17.5293 17.6107 17.6496 17.0001 17.6496C15.7668 17.6496 14.5841 17.1597 13.7121 16.2877C12.84 15.4156 12.3501 14.2329 12.3501 12.9996C12.3501 11.7664 12.84 10.5836 13.7121 9.71156C14.5841 8.83952 15.7668 8.34961 17.0001 8.34961C17.6107 8.34961 18.2154 8.46989 18.7796 8.70357C19.3437 8.93725 19.8564 9.27977 20.2881 9.71156C20.7199 10.1434 21.0625 10.656 21.2961 11.2201C21.5298 11.7843 21.6501 12.389 21.6501 12.9996C21.6501 13.6103 21.5298 14.2149 21.2961 14.7791C21.0625 15.3433 20.7199 15.8559 20.2881 16.2877C19.8564 16.7194 19.3437 17.062 18.7796 17.2956Z" fill="#ABBEFF" stroke="#ABBEFF" stroke-width="0.3"/>
<path id="Vector_2" d="M8.35 27.2764V27.276C8.35 26.4868 8.91655 25.8294 9.66885 25.7196L9.66888 25.7196C15.129 24.922 18.8849 24.9903 24.3557 25.7477C24.7168 25.8001 25.0467 25.9814 25.2846 26.2581C25.5226 26.5349 25.6524 26.8884 25.65 27.2534V27.2544C25.65 27.6044 25.5296 27.9435 25.3135 28.2074C25.0737 28.4996 24.8369 28.7818 24.6047 29.0534C22.3298 30.4924 19.6923 31.2543 17.0002 31.25L16.9998 31.25C14.2435 31.2544 11.5458 30.4556 9.23653 28.9515C9.05014 28.7183 8.86136 28.4774 8.66946 28.2288C8.46125 27.955 8.34897 27.6204 8.35 27.2764ZM6.50744 26.6429C4.08935 24.0186 2.74511 20.5763 2.75 17.0002V17C2.75 9.13004 9.13004 2.75 17 2.75C24.87 2.75 31.25 9.13004 31.25 17V17.0002C31.2549 20.5751 29.9116 24.0163 27.495 26.6404C27.2379 25.2196 26.1051 24.0717 24.6165 23.8658C18.9916 23.0873 15.0541 23.0125 9.39431 23.8396C7.89697 24.058 6.76834 25.2175 6.50744 26.6429ZM17 33.15C25.9196 33.15 33.15 25.9196 33.15 17C33.15 8.08036 25.9196 0.85 17 0.85C8.08036 0.85 0.85 8.08036 0.85 17C0.85 25.9196 8.08036 33.15 17 33.15Z" fill="#ABBEFF" stroke="#ABBEFF" stroke-width="0.3"/>
</g>
</svg>
