<svg width="26" height="26" viewBox="0 0 26 26" fill="none" xmlns="http://www.w3.org/2000/svg">
<g id="iconoir:log-out">
<path id="Vector" d="M13.0003 13H20.5837M20.5837 13L17.3337 16.25M20.5837 13L17.3337 9.75M20.5837 6.5V5.41667C20.5837 4.84203 20.3554 4.29093 19.9491 3.8846C19.5427 3.47827 18.9916 3.25 18.417 3.25H7.58366C7.00902 3.25 6.45792 3.47827 6.05159 3.8846C5.64527 4.29093 5.41699 4.84203 5.41699 5.41667V20.5833C5.41699 21.158 5.64527 21.7091 6.05159 22.1154C6.45792 22.5217 7.00902 22.75 7.58366 22.75H18.417C18.9916 22.75 19.5427 22.5217 19.9491 22.1154C20.3554 21.7091 20.5837 21.158 20.5837 20.5833V19.5" stroke="#767676" stroke-linecap="round" stroke-linejoin="round"/>
</g>
</svg>
