<svg width="25" height="25" viewBox="0 0 25 25" fill="none" xmlns="http://www.w3.org/2000/svg">
<g id="healthicons:ui-user-profile-outline">
<g id="Group" opacity="0.76">
<path id="Vector" fill-rule="evenodd" clip-rule="evenodd" d="M12.4997 14.0628C13.6047 14.0628 14.6646 13.6238 15.446 12.8424C16.2274 12.061 16.6663 11.0012 16.6663 9.89616C16.6663 8.79109 16.2274 7.73128 15.446 6.94988C14.6646 6.16848 13.6047 5.72949 12.4997 5.72949C11.3946 5.72949 10.3348 6.16848 9.5534 6.94988C8.77199 7.73128 8.33301 8.79109 8.33301 9.89616C8.33301 11.0012 8.77199 12.061 9.5534 12.8424C10.3348 13.6238 11.3946 14.0628 12.4997 14.0628ZM12.4997 13.0212C12.9101 13.0212 13.3164 12.9403 13.6956 12.7833C14.0747 12.6262 14.4192 12.3961 14.7094 12.1059C14.9996 11.8157 15.2298 11.4712 15.3868 11.092C15.5438 10.7129 15.6247 10.3065 15.6247 9.89616C15.6247 9.48578 15.5438 9.07942 15.3868 8.70027C15.2298 8.32113 14.9996 7.97663 14.7094 7.68645C14.4192 7.39627 14.0747 7.16608 13.6956 7.00904C13.3164 6.85199 12.9101 6.77116 12.4997 6.77116C11.6709 6.77116 10.876 7.1004 10.29 7.68645C9.70391 8.2725 9.37467 9.06736 9.37467 9.89616C9.37467 10.725 9.70391 11.5198 10.29 12.1059C10.876 12.6919 11.6709 13.0212 12.4997 13.0212Z" fill="#767676"/>
<path id="Vector_2" fill-rule="evenodd" clip-rule="evenodd" d="M22.9163 12.5002C22.9163 18.2533 18.2528 22.9168 12.4997 22.9168C6.74655 22.9168 2.08301 18.2533 2.08301 12.5002C2.08301 6.74704 6.74655 2.0835 12.4997 2.0835C18.2528 2.0835 22.9163 6.74704 22.9163 12.5002ZM17.5153 20.422C16.0158 21.3739 14.2758 21.878 12.4997 21.8752C10.681 21.8781 8.90111 21.3495 7.37884 20.3543C7.25384 20.1981 7.12728 20.0366 6.99863 19.87C6.84995 19.6746 6.76977 19.4357 6.77051 19.1903C6.77051 18.6293 7.17363 18.159 7.7127 18.0804C11.2778 17.5595 13.7325 17.6043 17.3023 18.0986C17.5608 18.1361 17.797 18.2658 17.9673 18.4639C18.1377 18.662 18.2305 18.915 18.2288 19.1762C18.2288 19.4262 18.1429 19.6689 17.9877 19.8585C17.8278 20.0533 17.67 20.2413 17.5153 20.422ZM19.2627 18.9929C19.1794 18.0179 18.4393 17.2043 17.445 17.0668C13.7908 16.5611 11.2367 16.5127 7.56217 17.0496C6.56217 17.1955 5.8252 18.0163 5.7377 18.9939C4.05818 17.2497 3.12136 14.9216 3.12467 12.5002C3.12467 7.32256 7.32207 3.12516 12.4997 3.12516C17.6773 3.12516 21.8747 7.32256 21.8747 12.5002C21.878 14.921 20.9416 17.2487 19.2627 18.9929Z" fill="#767676"/>
</g>
</g>
</svg>
